<?xml version="1.0" standalone="no"?>
<!DOCTYPE svg PUBLIC "-//W3C//DTD SVG 20010904//EN"
 "http://www.w3.org/TR/2001/REC-SVG-20010904/DTD/svg10.dtd">
<svg version="1.0" xmlns="http://www.w3.org/2000/svg"
 width="512.000000pt" height="512.000000pt" viewBox="0 0 512.000000 512.000000"
 preserveAspectRatio="xMidYMid meet">
<metadata>
Created by potrace 1.14, written by Peter Selinger 2001-2017
</metadata>
<g transform="translate(0.000000,512.000000) scale(0.100000,-0.100000)"
fill="#000000" stroke="none">
<path d="M200 5096 c-55 -36 -135 -130 -167 -194 -26 -52 -28 -68 -31 -191 -3
-109 0 -142 14 -180 9 -25 85 -160 168 -299 83 -138 158 -264 167 -280 9 -15
81 -135 160 -267 79 -132 149 -251 156 -265 7 -14 64 -110 128 -215 63 -104
115 -190 115 -191 0 -2 22 -38 48 -81 26 -43 63 -104 81 -135 l32 -58 -36 -59
c-64 -107 -164 -341 -179 -424 -2 -12 -11 -49 -19 -82 -8 -33 -18 -78 -21
-100 -4 -22 -9 -56 -12 -75 -10 -64 -12 -335 -3 -400 8 -55 22 -136 34 -200
14 -72 59 -209 102 -309 171 -404 510 -748 908 -924 117 -51 263 -99 345 -113
14 -3 32 -7 40 -9 8 -3 31 -7 50 -10 19 -3 53 -8 75 -11 22 -3 106 -7 186 -9
365 -6 705 94 1009 296 52 35 106 73 120 85 14 12 52 46 86 76 33 29 83 77
110 107 27 30 56 62 64 70 25 26 134 182 165 236 163 281 248 587 248 895 0
78 -12 260 -18 270 -2 3 -6 26 -10 50 -24 166 -121 429 -215 582 -17 26 -30
53 -30 59 0 6 29 59 64 118 143 239 410 688 425 713 9 16 85 144 170 285 85
142 159 268 165 280 6 13 14 23 19 23 4 0 7 4 7 9 0 5 45 84 100 176 l100 168
0 181 c-1 178 -1 182 -28 228 -40 69 -97 133 -149 167 l-46 31 -2331 -1 -2331
0 -35 -23z"/>
</g>
</svg>
